{
  "accessors": [
    {
      "bufferView": 2,
      "componentType": 5126,
      "count": 10828,
      "max": [
        1.7330293655395508,
        2.127540349960327,
        5.243311882019043
      ],
      "min": [
        -1.6862176656723022,
        -2.004793405532837,
        -4.347172737121582
      ],
      "type": "VEC3"
    },
    {
      "bufferView": 2,
      "byteOffset": 129936,
      "componentType": 5126,
      "count": 10828,
      "type": "VEC3"
    },
    {
      "bufferView": 1,
      "componentType": 5126,
      "count": 10828,
      "type": "VEC2"
    },
    {
      "bufferView": 0,
      "componentType": 5125,
      "count": 48171,
      "type": "SCALAR"
    },
    {
      "bufferView": 2,
      "byteOffset": 259872,
      "componentType": 5126,
      "count": 1324,
      "max": [
        0.6971490383148193,
        2.295454978942871,
        0.6971486210823059
      ],
      "min": [
        -0.6971489787101746,
        2.0806305408477783,
        -0.6971495151519775
      ],
      "type": "VEC3"
    },
    {
      "bufferView": 2,
      "byteOffset": 275760,
      "componentType": 5126,
      "count": 1324,
      "type": "VEC3"
    },
    {
      "bufferView": 1,
      "byteOffset": 86624,
      "componentType": 5126,
      "count": 1324,
      "type": "VEC2"
    },
    {
      "bufferView": 0,
      "byteOffset": 192684,
      "componentType": 5125,
      "count": 7482,
      "type": "SCALAR"
    },
    {
      "bufferView": 2,
      "byteOffset": 291648,
      "componentType": 5126,
      "count": 2559,
      "max": [
        3.1523733139038086,
        1.4150466918945313,
        6.2069244384765625
      ],
      "min": [
        -2.955717086791992,
        -3.6990432739257813,
        -0.06322121620178223
      ],
      "type": "VEC3"
    },
    {
      "bufferView": 2,
      "byteOffset": 322356,
      "componentType": 5126,
      "count": 2559,
      "type": "VEC3"
    },
    {
      "bufferView": 1,
      "byteOffset": 97216,
      "componentType": 5126,
      "count": 2559,
      "type": "VEC2"
    },
    {
      "bufferView": 0,
      "byteOffset": 222612,
      "componentType": 5125,
      "count": 9171,
      "type": "SCALAR"
    },
    {
      "bufferView": 2,
      "byteOffset": 353064,
      "componentType": 5126,
      "count": 2218,
      "max": [
        1.833547592163086,
        1.9910931587219238,
        3.73783278465271
      ],
      "min": [
        -1.7867361307144165,
        -1.711303949356079,
        -1.9843971729278564
      ],
      "type": "VEC3"
    },
    {
      "bufferView": 2,
      "byteOffset": 379680,
      "componentType": 5126,
      "count": 2218,
      "type": "VEC3"
    },
    {
      "bufferView": 1,
      "byteOffset": 117688,
      "componentType": 5126,
      "count": 2218,
      "type": "VEC2"
    },
    {
      "bufferView": 0,
      "byteOffset": 259296,
      "componentType": 5125,
      "count": 11340,
      "type": "SCALAR"
    }
  ],
  "asset": {
    "generator": "fab-model-conversion",
    "version": "2.0"
  },
  "bufferViews": [
    {
      "buffer": 0,
      "byteLength": 304656,
      "target": 34963
    },
    {
      "buffer": 0,
      "byteLength": 135432,
      "byteOffset": 304656,
      "byteStride": 8,
      "target": 34962
    },
    {
      "buffer": 0,
      "byteLength": 406296,
      "byteOffset": 440088,
      "byteStride": 12,
      "target": 34962
    }
  ],
  "buffers": [
    {
      "byteLength": 846384,
      "uri": "scene.bin"
    }
  ],
  "materials": [
    {
      "doubleSided": true,
      "name": "dark_grey",
      "pbrMetallicRoughness": {
        "baseColorFactor": [
          0.0946276,
          0.0946276,
          0.0946276,
          1.0
        ],
        "metallicFactor": 0.0,
        "roughnessFactor": 0.34456
      }
    },
    {
      "doubleSided": true,
      "emissiveFactor": [
        0.246728,
        0.731,
        1.0
      ],
      "name": "blue",
      "pbrMetallicRoughness": {
        "baseColorFactor": [
          0.176049,
          0.710722,
          0.8,
          1.0
        ],
        "metallicFactor": 0.0,
        "roughnessFactor": 0.5
      }
    },
    {
      "doubleSided": true,
      "name": "material",
      "pbrMetallicRoughness": {
        "baseColorFactor": [
          0.476992,
          0.0182167,
          0.0202987,
          1.0
        ],
        "metallicFactor": 0.0,
        "roughnessFactor": 0.34456
      }
    },
    {
      "doubleSided": true,
      "name": "white",
      "pbrMetallicRoughness": {
        "baseColorFactor": [
          0.8,
          0.8,
          0.8,
          1.0
        ],
        "metallicFactor": 0.0,
        "roughnessFactor": 0.34456
      }
    }
  ],
  "meshes": [
    {
      "name": "Object_0",
      "primitives": [
        {
          "attributes": {
            "NORMAL": 1,
            "POSITION": 0,
            "TEXCOORD_0": 2
          },
          "indices": 3,
          "material": 0,
          "mode": 4
        }
      ]
    },
    {
      "name": "Object_1",
      "primitives": [
        {
          "attributes": {
            "NORMAL": 5,
            "POSITION": 4,
            "TEXCOORD_0": 6
          },
          "indices": 7,
          "material": 1,
          "mode": 4
        }
      ]
    },
    {
      "name": "Object_2",
      "primitives": [
        {
          "attributes": {
            "NORMAL": 9,
            "POSITION": 8,
            "TEXCOORD_0": 10
          },
          "indices": 11,
          "material": 2,
          "mode": 4
        }
      ]
    },
    {
      "name": "Object_3",
      "primitives": [
        {
          "attributes": {
            "NORMAL": 13,
            "POSITION": 12,
            "TEXCOORD_0": 14
          },
          "indices": 15,
          "material": 3,
          "mode": 4
        }
      ]
    }
  ],
  "nodes": [
    {
      "children": [
        1
      ],
      "matrix": [
        1.0,
        0.0,
        0.0,
        0.0,
        0.0,
        2.220446049250313e-16,
        -1.0,
        0.0,
        0.0,
        1.0,
        2.220446049250313e-16,
        0.0,
        0.0,
        0.0,
        0.0,
        1.0
      ],
      "name": "Sketchfab_model"
    },
    {
      "children": [
        2
      ],
      "name": "root"
    },
    {
      "children": [
        3
      ],
      "matrix": [
        1.0,
        0.0,
        0.0,
        0.0,
        0.0,
        2.220446049250313e-16,
        1.0,
        0.0,
        0.0,
        -1.0,
        2.220446049250313e-16,
        0.0,
        0.0,
        0.0,
        0.0,
        1.0
      ],
      "name": "GLTF_SceneRootNode"
    },
    {
      "children": [
        4,
        5,
        6,
        7
      ],
      "matrix": [
        0.5198532342910767,
        0.0,
        0.0,
        0.0,
        0.0,
        0.06612148942921926,
        0.5156310655981591,
        0.0,
        0.0,
        -0.5156310655981591,
        0.06612148942921926,
        0.0,
        -0.04477345943450928,
        1.9753308296203613,
        -0.12836778163909912,
        1.0
      ],
      "name": "rocket_2"
    },
    {
      "mesh": 0,
      "name": "Object_4"
    },
    {
      "mesh": 1,
      "name": "Object_5"
    },
    {
      "mesh": 2,
      "name": "Object_6"
    },
    {
      "mesh": 3,
      "name": "Object_7"
    }
  ],
  "scene": 0,
  "scenes": [
    {
      "name": "Sketchfab_Scene",
      "nodes": [
        0
      ]
    }
  ]
}
